# xmcd
#
# Track frame offsets: 
#        150
#        13077
#        27631
#        42928
#        57803
#        73287
#        86224
#        99664
#        114073
#        128903
#        144127
#        156617
#        171471
#        185688
#        200363
#        215150
#
# Disc length: 3071 seconds
#
# Revision: 0
# Processed by: cddbd v1.5.2PL0 Copyright (c) Steve Scherf et al.
# Submitted via: ExactAudioCopy v1.3
#
DISCID=f30bfd10
DTITLE=Billie Holiday - Memories Of Lady Day
DYEAR=1900
DGENRE=Blues
TTITLE0=I Gotta right to sing the blues
TTITLE1=Fine and mellow
TTITLE2=Ain't nobodys business if i do
TTITLE3=Now or never
TTITLE4=I cover the waterfront
TTITLE5=Them there eyes
TTITLE6=My old flame
TTITLE7=God bless the child
TTITLE8=Solitude
TTITLE9=I'll get by
TTITLE10=Keeps on rainin
TTITLE11=Yesterdays
TTITLE12=Gimmie a pigfoot
TTITLE13=Do your duty
TTITLE14=Strange fruit
TTITLE15=Please tell me now
EXTD=
EXTT0=
EXTT1=
EXTT2=
EXTT3=
EXTT4=
EXTT5=
EXTT6=
EXTT7=
EXTT8=
EXTT9=
EXTT10=
EXTT11=
EXTT12=
EXTT13=
EXTT14=
EXTT15=
PLAYORDER=
